<?xml version="1.0" encoding="utf-8"?>
<!-- Generator: Adobe Illustrator 24.3.0, SVG Export Plug-In . SVG Version: 6.00 Build 0)  -->
<svg version="1.1" id="Layer_1" xmlns="http://www.w3.org/2000/svg" xmlns:xlink="http://www.w3.org/1999/xlink" x="0px" y="0px"
	 viewBox="0 0 499.9 500" style="enable-background:new 0 0 499.9 500;" xml:space="preserve">
<style type="text/css">
	.st0{fill:#B7B7B7;}
</style>
<g>
	<path class="st0" d="M381.9,435.8H115.6v-27.7c29.3-22.2,90.3-66.6,138.7-118.1c35.7-38,48.3-65.8,48.3-107
		c0-12.7-1.6-81.6-80-81.6c-58.6,0-80.8,38.8-84.8,43.6l-9.5-6.3c7.1-21.4,31.7-74.5,121.2-74.5C313.7,64.2,370,99,370,173.5
		c0,57.9-38.8,102.2-105.4,151.4c-52.3,38-86.4,59.4-93.5,64.2h81.6c68.9,0,86.4-3.2,99.1-13.5c9.5-7.1,18.2-20.6,19.8-39.6h12.7
		C381.1,372.4,381.9,435.8,381.9,435.8z"/>
</g>
</svg>
