<?xml version="1.0" encoding="utf-8"?>
<!-- Generator: Adobe Illustrator 24.3.0, SVG Export Plug-In . SVG Version: 6.00 Build 0)  -->
<svg version="1.1" id="Layer_1" xmlns="http://www.w3.org/2000/svg" xmlns:xlink="http://www.w3.org/1999/xlink" x="0px" y="0px"
	 viewBox="0 0 499.9 500" style="enable-background:new 0 0 499.9 500;" xml:space="preserve">
<style type="text/css">
	.st0{fill:#B7B7B7;}
</style>
<g>
	<path class="st0" d="M220.9,459.2c-26.9,0-62.5-5.6-83.2-18.1l3.1-11.3c0,0,23.8,6.3,55,6.3c83.8,0,111.9-40.6,111.9-100.7
		c0-73.2-54.4-85-83.8-85c-18.1,0-15.6,0.6-21.9,1.3v-24.4h7.5c63.8,0,87.5-39.4,87.5-86.9c0-40-22.5-68.8-68.8-68.8
		c-49.4,0-71.3,33.8-71.3,33.8l-7.5-5.6c5.6-16.9,26.9-58.8,100.7-58.8c43.1,0,99.4,22.5,99.4,92.5c0,50.6-29.4,85.7-83.2,101.3
		c52.5,6.9,95.7,38.8,95.7,100.7C362.2,407.9,317.2,459.2,220.9,459.2z"/>
</g>
</svg>
