<?xml version="1.0" encoding="utf-8"?>
<!-- Generator: Adobe Illustrator 24.3.0, SVG Export Plug-In . SVG Version: 6.00 Build 0)  -->
<svg version="1.1"
	 id="Layer_1" xmlns:cc="http://creativecommons.org/ns#" xmlns:dc="http://purl.org/dc/elements/1.1/" xmlns:inkscape="http://www.inkscape.org/namespaces/inkscape" xmlns:rdf="http://www.w3.org/1999/02/22-rdf-syntax-ns#" xmlns:sodipodi="http://sodipodi.sourceforge.net/DTD/sodipodi-0.dtd" xmlns:svg="http://www.w3.org/2000/svg"
	 xmlns="http://www.w3.org/2000/svg" xmlns:xlink="http://www.w3.org/1999/xlink" x="0px" y="0px" viewBox="0 0 500 500"
	 style="enable-background:new 0 0 500 500;" xml:space="preserve">
<g transform="translate(0,-952.36218)">
	<path d="M357.6,1065.9c0,5.7,5.7,11.4,12,10.9h75.5l-167.6,167.6l-81.8-61.8c-2.3-2.3-5.7-4-9.2-3.4c-2.9,0-5.1,1.1-6.9,3.4
		L19.5,1331.3c-4.6,4-4.6,12-0.6,16c4,4.6,12,4.6,16,0.6L188.3,1206l82.4,61.8c4,4.6,12.6,4.6,16.6,0l173.9-175v75.5
		c0,6.3,5.1,11.4,11.4,11.4s11.4-5.7,11.4-11.4v-103c0-5.7-5.7-11.4-11.4-11.4h-103C362.2,1053.9,357.6,1060.2,357.6,1065.9
		L357.6,1065.9z"/>
</g>
</svg>
