<?xml version="1.0" encoding="utf-8"?>
<!-- Generator: Adobe Illustrator 24.3.0, SVG Export Plug-In . SVG Version: 6.00 Build 0)  -->
<svg version="1.1" id="Layer_1" xmlns="http://www.w3.org/2000/svg" xmlns:xlink="http://www.w3.org/1999/xlink" x="0px" y="0px"
	 viewBox="0 0 500 500" style="enable-background:new 0 0 500 500;" xml:space="preserve">
<g>
	<g>
		<path d="M250,480.4c-61.5,0-119.4-24-162.9-67.5C43.6,369.4,19.7,311.5,19.7,250s24-119.4,67.5-162.9
			C130.7,43.6,188.5,19.6,250,19.6s119.4,24,162.9,67.5c43.5,43.5,67.5,101.4,67.5,162.9s-24,119.4-67.5,162.9
			C369.4,456.4,311.6,480.4,250,480.4z M250,39.6C134,39.6,39.7,134,39.7,250S134,460.4,250,460.4S460.4,366,460.4,250
			S366,39.6,250,39.6z"/>
		<path d="M329,314.8l-45.6-45.6c3.3-5.7,5.2-12.2,5.2-19.2c0-17.8-12.1-32.8-28.5-37.2v-83.2c0-5.5-4.5-10-10-10s-10,4.5-10,10
			v83.2c-16.4,4.4-28.5,19.4-28.5,37.2c0,21.2,17.3,38.5,38.5,38.5c7,0,13.6-1.9,19.2-5.2l45.6,45.6c2,2,4.5,2.9,7.1,2.9
			s5.1-1,7.1-2.9C332.9,325.1,332.9,318.7,329,314.8z M231.5,250c0-10.2,8.3-18.5,18.5-18.5c0,0,0,0,0,0c0,0,0,0,0,0
			c10.2,0,18.5,8.3,18.5,18.5c0,10.2-8.3,18.5-18.5,18.5C239.8,268.5,231.5,260.2,231.5,250z"/>
	</g>
</g>
</svg>
