<?xml version="1.0" encoding="utf-8"?>
<!-- Generator: Adobe Illustrator 24.3.0, SVG Export Plug-In . SVG Version: 6.00 Build 0)  -->
<svg version="1.1" id="Layer_1" xmlns="http://www.w3.org/2000/svg" xmlns:xlink="http://www.w3.org/1999/xlink" x="0px" y="0px"
	 viewBox="0 0 500 500" style="enable-background:new 0 0 500 500;" xml:space="preserve">
<path d="M82.7,181.8c-37.3,0-68.2,30.9-68.2,68.2s30.9,68.2,68.2,68.2s68.2-30.9,68.2-68.2S120,181.8,82.7,181.8z M82.7,292.5
	c-23.2,0-42.5-19.3-42.5-42.5s19.3-42.5,42.5-42.5s42.5,19.3,42.5,42.5S105.9,292.5,82.7,292.5z M250,181.8
	c-37.3,0-68.2,30.9-68.2,68.2s30.9,68.2,68.2,68.2s68.2-30.9,68.2-68.2S287.3,181.8,250,181.8z M250,292.5
	c-23.2,0-42.5-19.3-42.5-42.5s19.3-42.5,42.5-42.5s42.5,19.3,42.5,42.5S273.2,292.5,250,292.5z M417.3,181.8
	c-37.3,0-68.2,30.9-68.2,68.2s30.9,68.2,68.2,68.2s68.2-30.9,68.2-68.2S454.6,181.8,417.3,181.8z M417.3,292.5
	c-23.2,0-42.5-19.3-42.5-42.5s19.3-42.5,42.5-42.5c23.2,0,42.5,19.3,42.5,42.5S440.5,292.5,417.3,292.5z"/>
</svg>
