<?xml version="1.0" encoding="utf-8"?>
<!-- Generator: Adobe Illustrator 24.3.0, SVG Export Plug-In . SVG Version: 6.00 Build 0)  -->
<svg version="1.1" id="Layer_1" xmlns="http://www.w3.org/2000/svg" xmlns:xlink="http://www.w3.org/1999/xlink" x="0px" y="0px"
	 viewBox="0 0 500 500" style="enable-background:new 0 0 500 500;" xml:space="preserve">
<path d="M444.4,429.6L324.1,309.3C347.7,282.1,362,246.7,362,208c0-85.3-69.4-154.7-154.7-154.7S52.7,122.7,52.7,208
	S122,362.6,207.3,362.6c39.4,0,75.3-14.8,102.7-39.1l120.3,120.3c2,2,4.5,2.9,7.1,2.9s5.1-1,7.1-2.9
	C448.3,439.9,448.3,433.5,444.4,429.6z M72.7,208c0-74.3,60.4-134.7,134.7-134.7S342,133.7,342,208c0,74.3-60.4,134.7-134.7,134.7
	S72.7,282.2,72.7,208z"/>
</svg>
