<?xml version="1.0" encoding="utf-8"?>
<!-- Generator: Adobe Illustrator 24.3.0, SVG Export Plug-In . SVG Version: 6.00 Build 0)  -->
<svg version="1.1" id="Layer_1" xmlns="http://www.w3.org/2000/svg" xmlns:xlink="http://www.w3.org/1999/xlink" x="0px" y="0px"
	 viewBox="0 0 499.9 500" style="enable-background:new 0 0 499.9 500;" xml:space="preserve">
<style type="text/css">
	.st0{fill:#D8D8D8;}
</style>
<path class="st0" d="M451.9,453.7L339.7,341.5c34.8-32,56.7-77.9,56.7-128.8c0-96.5-78.5-174.9-174.9-174.9
	c-96.5,0-174.9,78.5-174.9,174.9c0,96.5,78.5,174.9,174.9,174.9c42,0,80.5-14.8,110.7-39.6l112.7,112.7c1,1,2.3,1.5,3.5,1.5
	s2.6-0.5,3.5-1.5C453.9,458.8,453.9,455.7,451.9,453.7z M56.5,212.7c0-90.9,74-164.9,164.9-164.9s164.9,74,164.9,164.9
	s-74,164.9-164.9,164.9S56.5,303.7,56.5,212.7z"/>
</svg>
